solid mike_text

  // --- M ---
  facet normal 0 0 1
    outer loop
      vertex 0 0 1
      vertex 0.5 0 1
      vertex 0.5 2 1
    endloop
  endfacet
  facet normal 0 0 1
    outer loop
      vertex 0 0 1
      vertex 0.5 2 1
      vertex 0 2 1
    endloop
  endfacet

  // Back face M
  facet normal 0 0 -1
    outer loop
      vertex 0 0 0
      vertex 0.5 2 0
      vertex 0.5 0 0
    endloop
  endfacet
  facet normal 0 0 -1
    outer loop
      vertex 0 0 0
      vertex 0 2 0
      vertex 0.5 2 0
    endloop
  endfacet

  // Right upright of M
  facet normal 0 0 1
    outer loop
      vertex 0.5 0 1
      vertex 1 0 1
      vertex 1 2 1
    endloop
  endfacet
  facet normal 0 0 1
    outer loop
      vertex 0.5 0 1
      vertex 1 2 1
      vertex 0.5 2 1
    endloop
  endfacet

  facet normal 0 0 -1
    outer loop
      vertex 0.5 0 0
      vertex 1 2 0
      vertex 1 0 0
    endloop
  endfacet
  facet normal 0 0 -1
    outer loop
      vertex 0.5 0 0
      vertex 0.5 2 0
      vertex 1 2 0
    endloop
  endfacet

  // --- I ---
  facet normal 0 0 1
    outer loop
      vertex 1.5 0 1
      vertex 2 0 1
      vertex 2 2 1
    endloop
  endfacet
  facet normal 0 0 1
    outer loop
      vertex 1.5 0 1
      vertex 2 2 1
      vertex 1.5 2 1
    endloop
  endfacet

  facet normal 0 0 -1
    outer loop
      vertex 1.5 0 0
      vertex 2 2 0
      vertex 2 0 0
    endloop
  endfacet
  facet normal 0 0 -1
    outer loop
      vertex 1.5 0 0
      vertex 1.5 2 0
      vertex 2 2 0
    endloop
  endfacet

  // --- K ---
  facet normal 0 0 1
    outer loop
      vertex 2.5 0 1
      vertex 3 0 1
      vertex 2.5 2 1
    endloop
  endfacet
  facet normal 0 0 1
    outer loop
      vertex 3 0 1
      vertex 3.5 2 1
      vertex 2.5 2 1
    endloop
  endfacet

  facet normal 0 0 -1
    outer loop
      vertex 2.5 0 0
      vertex 2.5 2 0
      vertex 3 0 0
    endloop
  endfacet
  facet normal 0 0 -1
    outer loop
      vertex 3 0 0
      vertex 2.5 2 0
      vertex 3.5 2 0
    endloop
  endfacet

  // --- E ---
  facet normal 0 0 1
    outer loop
      vertex 4 0 1
      vertex 4.7 0 1
      vertex 4.7 2 1
    endloop
  endfacet
  facet normal 0 0 1
    outer loop
      vertex 4 0 1
      vertex 4.7 2 1
      vertex 4 2 1
    endloop
  endfacet

  // Middle arm of E
  facet normal 0 0 1
    outer loop
      vertex 4 1 1
      vertex 4.5 1 1
      vertex 4.5 1.3 1
    endloop
  endfacet
  facet normal 0 0 1
    outer loop
      vertex 4 1 1
      vertex 4.5 1.3 1
      vertex 4 1.3 1
    endloop
  endfacet

  facet normal 0 0 -1
    outer loop
      vertex 4 0 0
      vertex 4.7 2 0
      vertex 4.7 0 0
    endloop
  endfacet
  facet normal 0 0 -1
    outer loop
      vertex 4 0 0
      vertex 4 2 0
      vertex 4.7 2 0
    endloop
  endfacet

endsolid mike_text